<?xml version="1.0" encoding="UTF-8" standalone="no"?>
<svg width="15px" height="15px" viewBox="0 0 15 15" version="1.1" xmlns="http://www.w3.org/2000/svg" xmlns:xlink="http://www.w3.org/1999/xlink">
    <!-- Generator: Sketch 3.8.3 (29802) - http://www.bohemiancoding.com/sketch -->
    <title>Fill 1</title>
    <desc>Created with Sketch.</desc>
    <defs></defs>
    <g id="Page-1" stroke="none" stroke-width="1" fill="none" fill-rule="evenodd">
        <path d="M6.49480416,10.991207 C4.01079137,10.991207 1.99840128,8.97881695 1.99840128,6.49480416 C1.99840128,4.01079137 4.01079137,1.99840128 6.49480416,1.99840128 C8.97781775,1.99840128 10.991207,4.01079137 10.991207,6.49480416 C10.991207,8.97881695 8.97781775,10.991207 6.49480416,10.991207 M14.4154676,11.588729 L12.2951639,9.46942446 C12.2881695,9.46143086 12.2791767,9.45743405 12.2731815,9.45143885 C12.7278177,8.56314948 12.9896083,7.56095124 12.9896083,6.49480416 C12.9896083,2.90767386 10.0819345,0 6.49480416,0 C2.90767386,0 0,2.90767386 0,6.49480416 C0,10.0819345 2.90767386,12.9896083 6.49480416,12.9896083 C7.55995204,12.9896083 8.56314948,12.7278177 9.45043965,12.2731815 C9.45743405,12.2801759 9.46243006,12.2881695 9.46942446,12.2951639 L11.588729,14.4154676 C12.3691047,15.1948441 13.6340927,15.1948441 14.4154676,14.4154676 C15.1948441,13.6350919 15.1948441,12.3691047 14.4154676,11.588729" id="Fill-1" fill="#000000"></path>
    </g>
</svg>