<?xml version="1.0" encoding="UTF-8" standalone="no"?>
<svg width="20px" height="20px" viewBox="0 0 20 20" version="1.1" xmlns="http://www.w3.org/2000/svg" xmlns:xlink="http://www.w3.org/1999/xlink">
    <!-- Generator: Sketch 3.8.3 (29802) - http://www.bohemiancoding.com/sketch -->
    <title>Page 1</title>
    <desc>Created with Sketch.</desc>
    <defs></defs>
    <g id="Page-1" stroke="none" stroke-width="1" fill="none" fill-rule="evenodd">
        <path d="M10,12.5 C8.61875,12.5 7.5,11.38 7.5,10 C7.5,8.62 8.61875,7.5 10,7.5 C11.38,7.5 12.5,8.62 12.5,10 C12.5,11.38 11.38,12.5 10,12.5 M19.4525,8.68125 L17.32875,8.41625 C17.13625,7.52 16.7825,6.68625 16.3,5.94 L17.61625,4.2475 C17.81,4 17.7875,3.64625 17.565,3.4225 L16.5775,2.435 C16.355,2.2125 16.00125,2.19 15.7525,2.38375 L14.06,3.7 C13.31375,3.21875 12.47875,2.86375 11.585,2.67125 L11.31875,0.5475 C11.27875,0.23375 11.0125,0 10.69875,0 L9.30125,0 C8.98625,0 8.72125,0.23375 8.68125,0.5475 L8.415,2.67125 C7.52125,2.86375 6.68625,3.21875 5.94,3.7 L4.2475,2.38375 C3.99875,2.19 3.645,2.2125 3.4225,2.435 L2.435,3.4225 C2.21125,3.64625 2.19,4 2.38375,4.2475 L3.7,5.94 C3.2175,6.68625 2.86375,7.52 2.67125,8.41625 L0.5475,8.68125 C0.23375,8.72125 0,8.98625 0,9.30125 L0,10.69875 C0,11.01375 0.23375,11.27875 0.5475,11.31875 L2.67125,11.58375 C2.86375,12.48 3.2175,13.31375 3.7,14.06 L2.38375,15.75125 C2.19,16 2.21125,16.35375 2.435,16.5775 L3.4225,17.565 C3.645,17.7875 3.99875,17.81 4.2475,17.61625 L5.94,16.3 C6.68625,16.78125 7.52125,17.13625 8.415,17.32875 L8.68125,19.4525 C8.72125,19.765 8.98625,20 9.30125,20 L10.69875,20 C11.0125,20 11.27875,19.765 11.31875,19.4525 L11.585,17.32875 C12.47875,17.13625 13.31375,16.78125 14.06,16.3 L15.7525,17.61625 C16.00125,17.81 16.355,17.7875 16.5775,17.565 L17.565,16.5775 C17.7875,16.35375 17.81,16 17.61625,15.75125 L16.3,14.06 C16.7825,13.31375 17.13625,12.48 17.32875,11.58375 L19.4525,11.31875 C19.765,11.27875 20,11.01375 20,10.69875 L20,9.30125 C20,8.98625 19.765,8.72125 19.4525,8.68125" fill="#000000"></path>
    </g>
</svg>