<?xml version="1.0" encoding="UTF-8" standalone="no"?>
<svg width="20px" height="20px" viewBox="0 0 20 20" version="1.1" xmlns="http://www.w3.org/2000/svg" xmlns:xlink="http://www.w3.org/1999/xlink">
    <!-- Generator: Sketch 3.8.3 (29802) - http://www.bohemiancoding.com/sketch -->
    <title>Page 1</title>
    <desc>Created with Sketch.</desc>
    <defs></defs>
    <g id="Page-1" stroke="none" stroke-width="1" fill="none" fill-rule="evenodd">
        <path d="M16.875,13.75 C15.9925,13.75 15.1975,14.11625 14.62875,14.70375 L6.21125,10.495 C6.2375,10.33375 6.25125,10.16875 6.25125,10 C6.25125,9.83125 6.2375,9.66625 6.21125,9.505 L14.62875,5.29625 C15.1975,5.88375 15.9925,6.25 16.875,6.25 C18.60125,6.25 20,4.85125 20,3.125 C20,1.39875 18.60125,0 16.875,0 C15.14875,0 13.75,1.39875 13.75,3.125 C13.75,3.29375 13.76375,3.45875 13.78875,3.62 L5.37125,7.82875 C4.8025,7.24125 4.0075,6.875 3.125,6.875 C1.39875,6.875 0,8.27375 0,10 C0,11.72625 1.39875,13.125 3.125,13.125 C4.0075,13.125 4.80375,12.75875 5.37125,12.17125 L13.78875,16.38 C13.7625,16.54125 13.75,16.70625 13.75,16.875 C13.75,18.60125 15.14875,20 16.875,20 C18.60125,20 20,18.60125 20,16.875 C20,15.14875 18.60125,13.75 16.875,13.75" ></path>
    </g>
</svg>
